# xmcd CD database file
#
# Track frame offsets:
#	150
#	19927
#	37130
#	58077
#	72705
#	87472
#	102427
#	120505
#	138090
#	156105
#
# Disc length: 2324 seconds
#
# Revision: 0
# Processed by: cddbd v1.5PL3 Copyright (c) Steve Scherf et al.
# Submitted via: CDex 1.51
#
DISCID=8e09120a
DTITLE=相田翔子 - ト・パソス 〜情熱〜
DYEAR=2003
DGENRE=JPop
TTITLE0=デン・イメ・エドー
TTITLE1=ト・パソス
TTITLE2=はかない愛だとしても
TTITLE3=哀しみの影
TTITLE4=わたしたち20才
TTITLE5=グリスビーのブルース
TTITLE6=悲しみの兵士
TTITLE7=太陽のとびら
TTITLE8=ジー・オ・ユーダス
TTITLE9=ホリース・フテラー
EXTD=YEAR: 2003
EXTT0=
EXTT1=
EXTT2=
EXTT3=
EXTT4=
EXTT5=
EXTT6=
EXTT7=
EXTT8=
EXTT9=
PLAYORDER=
